<svg width="50" height="50" viewBox="0 0 100 100" xmlns="http://www.w3.org/2000/svg">
  <style>
    .brain-path {
      /* Füllfarbe (z.B. hellgrau oder eine helle Themenfarbe) */
      fill: #f0f0f0;
      /* Linienfarbe (z.B. die Haupt-Akzentfarbe deines Designs) */
      stroke: #00796B;
      /* Liniendicke */
      stroke-width: 3;
      /* Runde Linienenden und -ecken für einen weicheren Look */
      stroke-linecap: round;
      stroke-linejoin: round;
    }
    .brain-lines {
      fill: none; /* Keine Füllung für die inneren Linien */
      stroke: #00796B;
      stroke-width: 2.5; /* Etwas dünner als der Umriss */
      stroke-linecap: round;
      stroke-linejoin: round;
    }
  </style>

  <!-- Äußerer Umriss des Gehirns -->
  <path class="brain-path"
        d="M 50,10
           C 25,10 10,30 15,50
           C 10,70 25,90 50,90
           C 75,90 90,70 85,50
           C 90,30 75,10 50,10 Z" />

  <!-- Mittellinie (Trennung der Hemisphären) -->
  <path class="brain-lines"
        d="M 50,10 Q 48,50 50,90" />

  <!-- Stilisierte Windungen (linke Hemisphäre) -->
  <path class="brain-lines"
        d="M 35,25 Q 45,40 30,55 Q 40,70 35,80" />
  <path class="brain-lines"
        d="M 25,40 Q 40,55 28,70" />

  <!-- Stilisierte Windungen (rechte Hemisphäre) -->
  <path class="brain-lines"
        d="M 65,25 Q 55,40 70,55 Q 60,70 65,80" />
  <path class="brain-lines"
        d="M 75,40 Q 60,55 72,70" />

</svg>