<svg xmlns="http://www.w3.org/2000/svg"
     width="24"
     height="24"
     viewBox="0 0 24 24"
     fill="none"
     stroke="currentColor"
     stroke-width="2"
     stroke-linecap="round"
     stroke-linejoin="round"
     class="impact-icon subword-icon">

    <title>Subword Tokenisierung Icon (Puzzle-Teile)</title>

    <!-- Linkes Puzzle-Teil -->
    <path d="M10 16.5V14a2 2 0 1 0-4 0v2.5a2 2 0 1 0 4 0z M10 7.5V10a2 2 0 1 1-4 0V7.5a2 2 0 1 1 4 0z"/> <!-- Vertikale Linien und Bögen links -->
    <path d="M6 10h4"/> <!-- Horizontale Linie oben -->
    <path d="M6 14h4"/> <!-- Horizontale Linie unten -->
    <path d="M6 7.5V16.5"/> <!-- Linke vertikale Linie -->

    <!-- Rechtes Puzzle-Teil (leicht nach rechts verschoben) -->
    <!-- Verschiebung um 1 Einheit nach rechts (x+1) -->
    <path d="M15 16.5V14a2 2 0 1 1 4 0v2.5a2 2 0 1 1-4 0z M15 7.5V10a2 2 0 1 0 4 0V7.5a2 2 0 1 0-4 0z"/> <!-- Vertikale Linien und Bögen rechts -->
    <path d="M19 10h-4"/> <!-- Horizontale Linie oben -->
    <path d="M19 14h-4"/> <!-- Horizontale Linie unten -->
    <path d="M19 7.5V16.5"/> <!-- Rechte vertikale Linie -->

    <!-- Andeutung der Verbindung/Trennung in der Mitte -->
    <path d="M10 10a2 2 0 1 0 0 4"/> <!-- Linker Teil der Verbindung -->
    <path d="M15 10a2 2 0 1 1 0 4"/> <!-- Rechter Teil der Verbindung -->

</svg>